M48
;GenerationSoftware,Autodesk,EAGLE,9.6.2*%
;CreationDate,2022-08-14T17:29:25Z*%
FMAT,2
ICI,OFF
METRIC,TZ,000.000
T3C0.350
T2C0.800
T1C1.000
%
G90
M71
T1
X70440Y19740
X48430Y16990
X51930Y16990
X55430Y16990
X58930Y16990
X70440Y12740
X70440Y16240
X31440Y37670
X70440Y23240
X31680Y48170
X31680Y51670
X31680Y55170
X31680Y58670
X31440Y34170
X39680Y19100
X31440Y41170
X31440Y44670
X39680Y8600
X39680Y12100
X39680Y15600
T2
X15680Y29270
X20760Y30540
X20760Y33080
X20760Y35620
X20760Y38160
X20760Y40700
X20760Y43240
X20760Y45780
X20760Y48320
X20760Y50860
X20760Y53400
X20760Y55940
X20760Y58480
X5520Y30540
X5520Y33080
X5520Y35620
X5520Y50860
X5520Y53400
X5520Y55940
X5520Y58480
X5520Y66100
X20760Y66100
X20760Y63560
X20760Y61020
X5520Y63560
X5520Y61020
X5520Y38160
X10600Y31810
X13140Y31810
X15680Y31810
X5520Y48320
X5520Y45780
X5520Y43240
X5520Y40700
X10600Y29270
X13140Y29270
T3
X29108Y40996
M30