G04 EAGLE Gerber RS-274X export*
G75*
%MOMM*%
%FSLAX34Y34*%
%LPD*%
%INTop Copper*%
%IPPOS*%
%AMOC8*
5,1,8,0,0,1.08239X$1,22.5*%
G01*
%ADD10C,2.184400*%
%ADD11R,5.500000X1.000000*%
%ADD12R,3.400000X1.600000*%
%ADD13C,1.308000*%
%ADD14C,1.308000*%
%ADD15C,0.152400*%
%ADD16C,0.756400*%


D10*
X484300Y169900D03*
X519300Y169900D03*
X554300Y169900D03*
X589300Y169900D03*
D11*
X79700Y106200D03*
X79700Y126200D03*
D12*
X61700Y82200D03*
X61700Y150200D03*
D10*
X704400Y127400D03*
X704400Y162400D03*
X704400Y197400D03*
X704400Y232400D03*
X316800Y481700D03*
X316800Y516700D03*
X316800Y551700D03*
X316800Y586700D03*
X314400Y341700D03*
X314400Y376700D03*
X314400Y411700D03*
X314400Y446700D03*
X396800Y86000D03*
X396800Y121000D03*
X396800Y156000D03*
X396800Y191000D03*
D13*
X214140Y305400D02*
X201060Y305400D01*
X201060Y330800D02*
X214140Y330800D01*
X214140Y356200D02*
X201060Y356200D01*
X201060Y381600D02*
X214140Y381600D01*
X214140Y407000D02*
X201060Y407000D01*
X201060Y432400D02*
X214140Y432400D01*
X214140Y457800D02*
X201060Y457800D01*
X201060Y483200D02*
X214140Y483200D01*
X214140Y508600D02*
X201060Y508600D01*
X201060Y534000D02*
X214140Y534000D01*
X214140Y559400D02*
X201060Y559400D01*
X201060Y584800D02*
X214140Y584800D01*
X61740Y305400D02*
X48660Y305400D01*
X48660Y330800D02*
X61740Y330800D01*
X61740Y356200D02*
X48660Y356200D01*
X48660Y508600D02*
X61740Y508600D01*
X61740Y534000D02*
X48660Y534000D01*
X48660Y559400D02*
X61740Y559400D01*
X61740Y584800D02*
X48660Y584800D01*
X48660Y661000D02*
X61740Y661000D01*
X201060Y661000D02*
X214140Y661000D01*
X214140Y635600D02*
X201060Y635600D01*
X201060Y610200D02*
X214140Y610200D01*
X61740Y635600D02*
X48660Y635600D01*
X48660Y610200D02*
X61740Y610200D01*
X61740Y381600D02*
X48660Y381600D01*
D14*
X106000Y318100D03*
X131400Y318100D03*
X156800Y318100D03*
D13*
X61740Y483200D02*
X48660Y483200D01*
X48660Y457800D02*
X61740Y457800D01*
X61740Y432400D02*
X48660Y432400D01*
X48660Y407000D02*
X61740Y407000D01*
D14*
X106000Y292700D03*
X131400Y292700D03*
X156800Y292700D03*
D15*
X54864Y304800D02*
X54864Y172212D01*
X41148Y158496D01*
X41148Y128016D01*
X62484Y106680D01*
X79248Y106680D01*
X54864Y304800D02*
X55200Y305400D01*
X79248Y106680D02*
X79700Y106200D01*
X56388Y324612D02*
X56388Y330708D01*
X56388Y324612D02*
X82296Y298704D01*
X82296Y141732D02*
X82296Y128016D01*
X82296Y141732D02*
X82296Y298704D01*
X82296Y128016D02*
X80772Y126492D01*
X56388Y330708D02*
X55200Y330800D01*
X80772Y126492D02*
X79700Y126200D01*
X537972Y169164D02*
X553212Y169164D01*
X537972Y169164D02*
X510540Y141732D01*
X82296Y141732D01*
X553212Y169164D02*
X554300Y169900D01*
X252984Y457200D02*
X208788Y457200D01*
X252984Y457200D02*
X297180Y413004D01*
X297180Y291084D01*
X396240Y192024D01*
X208788Y457200D02*
X207600Y457800D01*
X396240Y192024D02*
X396800Y191000D01*
X595884Y163068D02*
X704088Y163068D01*
X595884Y163068D02*
X589788Y169164D01*
X704088Y163068D02*
X704400Y162400D01*
X589788Y169164D02*
X589300Y169900D01*
X263652Y382524D02*
X208788Y382524D01*
X263652Y382524D02*
X291084Y409956D01*
X208788Y382524D02*
X207600Y381600D01*
X397764Y86868D02*
X664464Y86868D01*
X704088Y126492D01*
X397764Y86868D02*
X396800Y86000D01*
X704088Y126492D02*
X704400Y127400D01*
D16*
X291084Y409956D03*
D15*
X234696Y507492D02*
X208788Y507492D01*
X234696Y507492D02*
X316992Y425196D01*
X477012Y425196D01*
X704088Y198120D01*
X208788Y507492D02*
X207600Y508600D01*
X704088Y198120D02*
X704400Y197400D01*
X187452Y483108D02*
X56388Y483108D01*
X187452Y483108D02*
X202692Y467868D01*
X246888Y467868D01*
X300228Y414528D01*
X300228Y371856D01*
X316992Y355092D01*
X320040Y355092D01*
X483108Y192024D01*
X483108Y170688D01*
X56388Y483108D02*
X55200Y483200D01*
X483108Y170688D02*
X484300Y169900D01*
X60960Y457200D02*
X56388Y457200D01*
X60960Y457200D02*
X202692Y315468D01*
X252984Y315468D01*
X397764Y170688D01*
X464820Y170688D01*
X480060Y155448D01*
X504444Y155448D01*
X518160Y169164D01*
X56388Y457200D02*
X55200Y457800D01*
X518160Y169164D02*
X519300Y169900D01*
X292608Y609600D02*
X208788Y609600D01*
X292608Y609600D02*
X315468Y586740D01*
X208788Y609600D02*
X207600Y610200D01*
X315468Y586740D02*
X316800Y586700D01*
X112776Y659892D02*
X56388Y659892D01*
X112776Y659892D02*
X204216Y568452D01*
X300228Y568452D01*
X315468Y553212D01*
X56388Y659892D02*
X55200Y661000D01*
X315468Y553212D02*
X316800Y551700D01*
M02*
