G04 EAGLE Gerber RS-274X export*
G75*
%MOMM*%
%FSLAX34Y34*%
%LPD*%
%INBottom Solder Mask*%
%IPPOS*%
%AMOC8*
5,1,8,0,0,1.08239X$1,22.5*%
G01*
%ADD10C,2.387600*%
%ADD11C,1.511200*%
%ADD12C,1.511200*%
%ADD13C,0.959600*%


D10*
X484300Y169900D03*
X519300Y169900D03*
X554300Y169900D03*
X589300Y169900D03*
X704400Y127400D03*
X704400Y162400D03*
X704400Y197400D03*
X704400Y232400D03*
X316800Y481700D03*
X316800Y516700D03*
X316800Y551700D03*
X316800Y586700D03*
X314400Y341700D03*
X314400Y376700D03*
X314400Y411700D03*
X314400Y446700D03*
X396800Y86000D03*
X396800Y121000D03*
X396800Y156000D03*
X396800Y191000D03*
D11*
X214140Y305400D02*
X201060Y305400D01*
X201060Y330800D02*
X214140Y330800D01*
X214140Y356200D02*
X201060Y356200D01*
X201060Y381600D02*
X214140Y381600D01*
X214140Y407000D02*
X201060Y407000D01*
X201060Y432400D02*
X214140Y432400D01*
X214140Y457800D02*
X201060Y457800D01*
X201060Y483200D02*
X214140Y483200D01*
X214140Y508600D02*
X201060Y508600D01*
X201060Y534000D02*
X214140Y534000D01*
X214140Y559400D02*
X201060Y559400D01*
X201060Y584800D02*
X214140Y584800D01*
X61740Y305400D02*
X48660Y305400D01*
X48660Y330800D02*
X61740Y330800D01*
X61740Y356200D02*
X48660Y356200D01*
X48660Y508600D02*
X61740Y508600D01*
X61740Y534000D02*
X48660Y534000D01*
X48660Y559400D02*
X61740Y559400D01*
X61740Y584800D02*
X48660Y584800D01*
X48660Y661000D02*
X61740Y661000D01*
X201060Y661000D02*
X214140Y661000D01*
X214140Y635600D02*
X201060Y635600D01*
X201060Y610200D02*
X214140Y610200D01*
X61740Y635600D02*
X48660Y635600D01*
X48660Y610200D02*
X61740Y610200D01*
X61740Y381600D02*
X48660Y381600D01*
D12*
X106000Y318100D03*
X131400Y318100D03*
X156800Y318100D03*
D11*
X61740Y483200D02*
X48660Y483200D01*
X48660Y457800D02*
X61740Y457800D01*
X61740Y432400D02*
X48660Y432400D01*
X48660Y407000D02*
X61740Y407000D01*
D12*
X106000Y292700D03*
X131400Y292700D03*
X156800Y292700D03*
D13*
X291084Y409956D03*
M02*
